<?xml version="1.0" standalone="no"?>
<!DOCTYPE svg PUBLIC "-//W3C//DTD SVG 20010904//EN"
 "http://www.w3.org/TR/2001/REC-SVG-20010904/DTD/svg10.dtd">
<svg version="1.0" xmlns="http://www.w3.org/2000/svg"
 width="500.000000pt" height="500.000000pt" viewBox="0 0 500.000000 500.000000"
 preserveAspectRatio="xMidYMid meet">
<metadata>
Created by potrace 1.14, written by Peter Selinger 2001-2017
</metadata>
<g transform="translate(0.000000,500.000000) scale(0.100000,-0.100000)"
fill="#000000" stroke="none">
<path d="M1530 3785 l0 -35 105 0 105 0 0 -1230 0 -1229 -102 -3 -103 -3 0
-35 0 -35 253 -3 252 -2 0 40 0 40 -100 0 -100 0 0 1163 0 1162 23 -40 c12
-22 299 -563 637 -1202 l615 -1163 257 0 258 0 0 1270 0 1270 105 0 105 0 0
35 0 35 -255 0 -255 0 0 -35 0 -35 100 0 100 0 0 -892 -1 -893 -32 59 c-17 33
-235 449 -482 925 l-451 866 -517 3 -517 2 0 -35z"/>
</g>
</svg>
